# xmcd
#
# Track frame offsets:
#	150
#	11802
#	21904
#	32829
#	43184
#	52185
#	80574
#	88899
#	102706
#	113110
#	121784
#	137021
#	148875
#	161273
#	172147
#	186175
#
# Disc length: 2592 seconds
#
# Revision: 3
# Processed by: cddbd v1.5.2PL0 Copyright (c) Steve Scherf et al.
# Submitted via: audiograbber 1.83.01
#
DISCID=e90a1e10
DTITLE=Various Artist - Country mania [CD 3)
DYEAR=2012
DGENRE=Country
TTITLE0=Johnny Cash and the Tennessee Two - Doin' my time
TTITLE1=Willie Nelson - Healing hands of time
TTITLE2=Kenny Rogers - We all got to help each other
TTITLE3=Waylon Jennings - White lightning
TTITLE4=Johnny Cash and the Tennessee Two - Remeber me
TTITLE5=Johnny Cash - Starkville City jail
TTITLE6=Willie Nelson - Things to remember
TTITLE7=Kenny Rogers - I'm gonna sing you a sad song suzie
TTITLE8=Willie Nelson - Broken promises
TTITLE9=Johnny Cash - Big river
TTITLE10=Frankie Laine - Sixteen tons
TTITLE11=Kenny Rogers - Calico silver
TTITLE12=Willie Nelson - I can't find the time
TTITLE13=Johnny Cash and the Tennessee Two - I heard that lonesome whistle
TTITLE14=Tom T. Hall - Week in a country jail
TTITLE15=Johnny Cash and the Tennessee Two - Country boy
EXTD=
EXTT0=
EXTT1=
EXTT2=
EXTT3=
EXTT4=
EXTT5=
EXTT6=
EXTT7=
EXTT8=
EXTT9=
EXTT10=
EXTT11=
EXTT12=
EXTT13=
EXTT14=
EXTT15=
PLAYORDER=
